<mxfile host="app.diagrams.net" modified="2023-11-27T13:48:53.502Z" agent="Mozilla/5.0 (Macintosh; Intel Mac OS X 10_15_7) AppleWebKit/537.36 (KHTML, like Gecko) Chrome/116.0.0.0 Safari/537.36" etag="Hcxy2tb2-2YTpYIW1PPf" version="22.1.4" type="github">
  <diagram name="Page-1" id="JIQSLwdRHs-fSZyzwJGT">
    <mxGraphModel dx="1242" dy="822" grid="1" gridSize="10" guides="1" tooltips="1" connect="1" arrows="1" fold="1" page="1" pageScale="1" pageWidth="850" pageHeight="1100" math="0" shadow="0">
      <root>
        <mxCell id="0" />
        <mxCell id="1" parent="0" />
        <mxCell id="IxnAGizUYDFEoHdeAPiJ-1" value="" style="whiteSpace=wrap;html=1;aspect=fixed;" vertex="1" parent="1">
          <mxGeometry x="80" y="40" width="650" height="650" as="geometry" />
        </mxCell>
        <mxCell id="IxnAGizUYDFEoHdeAPiJ-2" value="" style="rounded=0;whiteSpace=wrap;html=1;" vertex="1" parent="1">
          <mxGeometry x="100" y="70" width="610" height="60" as="geometry" />
        </mxCell>
        <mxCell id="IxnAGizUYDFEoHdeAPiJ-3" value="" style="rounded=0;whiteSpace=wrap;html=1;" vertex="1" parent="1">
          <mxGeometry x="100" y="590" width="610" height="60" as="geometry" />
        </mxCell>
        <mxCell id="IxnAGizUYDFEoHdeAPiJ-5" value="" style="whiteSpace=wrap;html=1;aspect=fixed;" vertex="1" parent="1">
          <mxGeometry x="120" y="310" width="100" height="100" as="geometry" />
        </mxCell>
        <mxCell id="IxnAGizUYDFEoHdeAPiJ-9" value="" style="whiteSpace=wrap;html=1;aspect=fixed;" vertex="1" parent="1">
          <mxGeometry x="120" y="160" width="100" height="100" as="geometry" />
        </mxCell>
        <mxCell id="IxnAGizUYDFEoHdeAPiJ-10" value="" style="whiteSpace=wrap;html=1;aspect=fixed;" vertex="1" parent="1">
          <mxGeometry x="120" y="460" width="100" height="100" as="geometry" />
        </mxCell>
        <mxCell id="IxnAGizUYDFEoHdeAPiJ-11" value="" style="rounded=0;whiteSpace=wrap;html=1;" vertex="1" parent="1">
          <mxGeometry x="270" y="160" width="410" height="100" as="geometry" />
        </mxCell>
        <mxCell id="IxnAGizUYDFEoHdeAPiJ-12" value="" style="rounded=0;whiteSpace=wrap;html=1;" vertex="1" parent="1">
          <mxGeometry x="270" y="310" width="410" height="100" as="geometry" />
        </mxCell>
        <mxCell id="IxnAGizUYDFEoHdeAPiJ-13" value="" style="rounded=0;whiteSpace=wrap;html=1;" vertex="1" parent="1">
          <mxGeometry x="270" y="460" width="410" height="100" as="geometry" />
        </mxCell>
        <mxCell id="IxnAGizUYDFEoHdeAPiJ-14" value="" style="rounded=0;whiteSpace=wrap;html=1;" vertex="1" parent="1">
          <mxGeometry x="310" y="570" width="335" height="10" as="geometry" />
        </mxCell>
      </root>
    </mxGraphModel>
  </diagram>
</mxfile>
